# xmcd
#
# Track frame offsets: 
#        150
#        24084
#        57022
#        80247
#        102492
#        129357
#        152104
#        171316
#        194368
#        221221
#        240843
#        276975
#
# Disc length: 3972 seconds
#
# Revision: 0
# Processed by: cddbd v1.5.2PL0 Copyright (c) Steve Scherf et al.
# Submitted via: ExactAudioCopy v1.0b3
#
DISCID=a40f820c
DTITLE=Rohn Bailey - Soak (2008)
DYEAR=2008
DGENRE=Praise and Worship
TTITLE0=I Find Joy
TTITLE1=My Life Is Filled
TTITLE2=More of You
TTITLE3=Take This Wounded Heart
TTITLE4=I Hear the Sound
TTITLE5=You Are Here
TTITLE6=Fresh Anointed
TTITLE7=You Are Holy Lord
TTITLE8=Like Your Name
TTITLE9=We Press In
TTITLE10=Shelter Me
TTITLE11=Show Me Your Glory
EXTD=
EXTT0=
EXTT1=
EXTT2=
EXTT3=
EXTT4=
EXTT5=
EXTT6=
EXTT7=
EXTT8=
EXTT9=
EXTT10=
EXTT11=
PLAYORDER=
